<?xml version="1.0" standalone="no"?><!DOCTYPE svg PUBLIC "-//W3C//DTD SVG 1.1//EN" "http://www.w3.org/Graphics/SVG/1.1/DTD/svg11.dtd"><svg t="1664281040638" class="icon" viewBox="0 0 1027 1024" version="1.1" xmlns="http://www.w3.org/2000/svg" p-id="21892" xmlns:xlink="http://www.w3.org/1999/xlink" width="200.5859375" height="200"><path d="M906.364001 975.071757l-111.253801 15.556994a82.619914 82.619914 0 0 1-61.601688-16.058024 82.745171 82.745171 0 0 1-32.341513-54.887881l-110.276792-789.122886a82.72012 82.72012 0 0 1 16.032973-61.651791 82.670017 82.670017 0 0 1 54.862829-32.341513l111.22875-15.582046a83.346408 83.346408 0 0 1 93.943201 70.945906l110.301843 789.122886a83.396511 83.396511 0 0 1-70.895802 94.018355zM812.019976 99.621332a27.807187 27.807187 0 0 0-31.3144-23.648635l-111.22875 15.556994c-7.289992 1.027112-13.778336 4.859995-18.262558 10.822257a27.631827 27.631827 0 0 0-5.386077 20.517195l110.301843 789.122886c1.002061 7.289992 4.834943 13.778336 10.797205 18.262559 5.962262 4.484222 13.252254 6.388138 20.517196 5.386077l111.228749-15.556995c7.264941-1.027112 13.753285-4.859995 18.237507-10.822256 4.509274-5.93721 6.413189-13.227203 5.386077-20.517195l-110.276792-789.122887z m13.978748 739.195207a33.068007 33.068007 0 1 1 0-66.08591 33.068007 33.068007 0 0 1 0 66.08591z m-321.586365 141.415831h-112.305965a83.346408 83.346408 0 0 1-83.22115-83.271253V100.172466A83.346408 83.346408 0 0 1 392.106394 16.901213h112.305965a83.346408 83.346408 0 0 1 83.22115 83.271253v796.788651a83.346408 83.346408 0 0 1-83.22115 83.271253z m27.757085-880.059904a27.807187 27.807187 0 0 0-27.757085-27.757085h-112.305965a27.807187 27.807187 0 0 0-27.757084 27.757085v796.788651a27.807187 27.807187 0 0 0 27.757084 27.757085h112.305965a27.807187 27.807187 0 0 0 27.757085-27.757085V100.172466z m-83.922593 750.518494a33.068007 33.068007 0 1 1 0.050103-66.136014 33.068007 33.068007 0 0 1-0.050103 66.136014z m-240.344285 129.54141H95.596601a83.346408 83.346408 0 0 1-83.246202-83.271253V100.172466A83.346408 83.346408 0 0 1 95.596601 16.901213h112.305965a83.346408 83.346408 0 0 1 83.22115 83.271253v796.788651a83.346408 83.346408 0 0 1-83.22115 83.271253z m27.732033-880.059904c0-15.306479-12.450606-27.757084-27.732033-27.757085H95.596601a27.807187 27.807187 0 0 0-27.757084 27.757085v796.788651a27.807187 27.807187 0 0 0 27.757084 27.757085h112.305965c15.281427 0 27.732033-12.450606 27.732033-27.757085V100.172466zM151.737058 850.69096a33.068007 33.068007 0 1 1 0.050103-66.136014 33.068007 33.068007 0 0 1-0.050103 66.136014z" p-id="21893" fill="#2979FF"></path></svg>